<mxfile host="app.diagrams.net" modified="2023-04-04T02:18:49.694Z" agent="5.0 (Windows NT 10.0; Win64; x64) AppleWebKit/537.36 (KHTML, like Gecko) Chrome/101.0.0.0 Safari/537.36" etag="Y0aG4AGei4l_kg2xeZRM" version="20.8.18" type="github">
  <diagram name="第 1 页" id="uXFWWywdcrSCQnPSdjKh">
    <mxGraphModel dx="1354" dy="565" grid="1" gridSize="10" guides="1" tooltips="1" connect="1" arrows="1" fold="1" page="1" pageScale="1" pageWidth="827" pageHeight="1169" math="0" shadow="0">
      <root>
        <mxCell id="0" />
        <mxCell id="1" parent="0" />
        <mxCell id="nMs0Th5uvrwt67ncD9lY-5" value="" style="edgeStyle=orthogonalEdgeStyle;rounded=0;orthogonalLoop=1;jettySize=auto;html=1;" edge="1" parent="1" source="nMs0Th5uvrwt67ncD9lY-1" target="nMs0Th5uvrwt67ncD9lY-2">
          <mxGeometry relative="1" as="geometry" />
        </mxCell>
        <mxCell id="nMs0Th5uvrwt67ncD9lY-1" value="开始" style="strokeWidth=2;html=1;shape=mxgraph.flowchart.start_1;whiteSpace=wrap;" vertex="1" parent="1">
          <mxGeometry x="364" y="40" width="100" height="60" as="geometry" />
        </mxCell>
        <mxCell id="nMs0Th5uvrwt67ncD9lY-8" value="是" style="edgeStyle=orthogonalEdgeStyle;rounded=0;orthogonalLoop=1;jettySize=auto;html=1;" edge="1" parent="1" source="nMs0Th5uvrwt67ncD9lY-2" target="nMs0Th5uvrwt67ncD9lY-4">
          <mxGeometry relative="1" as="geometry" />
        </mxCell>
        <mxCell id="nMs0Th5uvrwt67ncD9lY-9" value="否" style="edgeStyle=orthogonalEdgeStyle;rounded=0;orthogonalLoop=1;jettySize=auto;html=1;entryX=1;entryY=0.5;entryDx=0;entryDy=0;entryPerimeter=0;" edge="1" parent="1" source="nMs0Th5uvrwt67ncD9lY-2" target="nMs0Th5uvrwt67ncD9lY-3">
          <mxGeometry relative="1" as="geometry">
            <Array as="points">
              <mxPoint x="510" y="200" />
              <mxPoint x="510" y="460" />
            </Array>
          </mxGeometry>
        </mxCell>
        <mxCell id="nMs0Th5uvrwt67ncD9lY-2" value="根据id查询&lt;br&gt;用户是否存在" style="strokeWidth=2;html=1;shape=mxgraph.flowchart.decision;whiteSpace=wrap;" vertex="1" parent="1">
          <mxGeometry x="364" y="150" width="100" height="100" as="geometry" />
        </mxCell>
        <mxCell id="nMs0Th5uvrwt67ncD9lY-3" value="结束" style="strokeWidth=2;html=1;shape=mxgraph.flowchart.terminator;whiteSpace=wrap;" vertex="1" parent="1">
          <mxGeometry x="364" y="430" width="100" height="60" as="geometry" />
        </mxCell>
        <mxCell id="nMs0Th5uvrwt67ncD9lY-7" value="" style="edgeStyle=orthogonalEdgeStyle;rounded=0;orthogonalLoop=1;jettySize=auto;html=1;" edge="1" parent="1" source="nMs0Th5uvrwt67ncD9lY-4" target="nMs0Th5uvrwt67ncD9lY-3">
          <mxGeometry relative="1" as="geometry" />
        </mxCell>
        <mxCell id="nMs0Th5uvrwt67ncD9lY-4" value="修改密码为默认密码" style="rounded=1;whiteSpace=wrap;html=1;absoluteArcSize=1;arcSize=14;strokeWidth=2;" vertex="1" parent="1">
          <mxGeometry x="364" y="310" width="100" height="60" as="geometry" />
        </mxCell>
      </root>
    </mxGraphModel>
  </diagram>
</mxfile>
